HIERARCHY
ROOT Hips
{
  OFFSET 48.6096 101.032 41.7514
  CHANNELS 6 Xposition Yposition Zposition Zrotation Xrotation Yrotation
  JOINT spine
  {
    OFFSET 0 8.81704 0.507024
    CHANNELS 3 Zrotation Xrotation Yrotation
    JOINT spine1
    {
      OFFSET 0 10.7766 0
      CHANNELS 3 Zrotation Xrotation Yrotation
      JOINT spine2
      {
        OFFSET 0 10.3259 0
        CHANNELS 3 Zrotation Xrotation Yrotation
        JOINT Neck
        {
          OFFSET 0 26.511 1.26395
          CHANNELS 3 Zrotation Xrotation Yrotation
          JOINT Head
          {
            OFFSET 0 8.00966 0
            CHANNELS 3 Zrotation Xrotation Yrotation
            End Site
            {
              OFFSET 0 19.3879 -6.39386
            }
          }
        }
        JOINT RightShoulder
        {
          OFFSET -4.34795 11.1512 -0.605422
          CHANNELS 3 Zrotation Xrotation Yrotation
          JOINT RightArm
          {
            OFFSET 0 14.6258 0
            CHANNELS 3 Zrotation Xrotation Yrotation
            JOINT RightArmRoll
            {
              OFFSET 0 7.3834 0
              CHANNELS 3 Zrotation Xrotation Yrotation
              JOINT RightForeArm
              {
                OFFSET 0 21.5052 0
                CHANNELS 3 Zrotation Xrotation Yrotation
                JOINT RightForeArmRoll
                {
                  OFFSET 0 8.28532 0
                  CHANNELS 3 Zrotation Xrotation Yrotation
                  JOINT RightHand
                  {
                    OFFSET 0 16.6268 0
                    CHANNELS 3 Zrotation Xrotation Yrotation
                    End Site
                    {
                      OFFSET 0 0 0
                    }
                  }
                }
              }
            }
          }
        }
        JOINT LeftShoulder
        {
          OFFSET 4.34795 11.1512 -0.605422
          CHANNELS 3 Zrotation Xrotation Yrotation
          JOINT LeftArm
          {
            OFFSET 0 14.6258 0
            CHANNELS 3 Zrotation Xrotation Yrotation
            JOINT LeftArmRoll
            {
              OFFSET 0 7.3834 0
              CHANNELS 3 Zrotation Xrotation Yrotation
              JOINT LeftForeArm
              {
                OFFSET 0 21.5052 0
                CHANNELS 3 Zrotation Xrotation Yrotation
                JOINT LeftForeArmRoll
                {
                  OFFSET 0 8.28532 0
                  CHANNELS 3 Zrotation Xrotation Yrotation
                  JOINT LeftHand
                  {
                    OFFSET 0 16.6268 0
                    CHANNELS 3 Zrotation Xrotation Yrotation
                    End Site
                    {
                      OFFSET 0 0 0
                    }
                  }
                }
              }
            }
          }
        }
      }
    }
  }
  JOINT RightUpLeg
  {
    OFFSET -7.8151 -1.43309 -1.20217
    CHANNELS 3 Zrotation Xrotation Yrotation
    JOINT RightUpLegRoll
    {
      OFFSET 0 19.4959 0
      CHANNELS 3 Zrotation Xrotation Yrotation
      JOINT RightLeg
      {
        OFFSET 0 -24.1427 0
        CHANNELS 3 Zrotation Xrotation Yrotation
        JOINT RightLegRoll
        {
          OFFSET 0 24.2217 0
          CHANNELS 3 Zrotation Xrotation Yrotation
          JOINT RightFoot
          {
            OFFSET 0 20.1605 0
            CHANNELS 3 Zrotation Xrotation Yrotation
            JOINT RightToeBase
            {
              OFFSET 0 16.8532 0
              CHANNELS 3 Zrotation Xrotation Yrotation
              End Site
              {
                OFFSET 0.00714343 8.16187 -0.940781
              }
            }
          }
        }
      }
    }
  }
  JOINT LeftUpLeg
  {
    OFFSET 7.8151 -1.43309 -1.20217
    CHANNELS 3 Zrotation Xrotation Yrotation
    JOINT LeftUpLegRoll
    {
      OFFSET 0 19.496 0
      CHANNELS 3 Zrotation Xrotation Yrotation
      JOINT LeftLeg
      {
        OFFSET 0 24.1426 0
        CHANNELS 3 Zrotation Xrotation Yrotation
        JOINT LeftLegRoll
        {
          OFFSET 0 24.4456 0
          CHANNELS 3 Zrotation Xrotation Yrotation
          JOINT LeftFoot
          {
            OFFSET 0 19.9366 0
            CHANNELS 3 Zrotation Xrotation Yrotation
            JOINT LeftToeBase
            {
              OFFSET 0 16.8532 0
              CHANNELS 3 Zrotation Xrotation Yrotation
              End Site
              {
                OFFSET -0.0320138 8.16186 -0.940781
              }
            }
          }
        }
      }
    }
  }
}
MOTION
Frames: 6
Frame Time: 0.00208333
50.2115 65.1226 17.1344 -0.397161 33.5774 6.29651 0.62642 1.81816 0.0758354 1.25897 7.63918 0.0633821 1.26144 9.28403 0.0421719 -5.02993 6.52039 -2.44345 -4.12737 -3.77239 -3.97021 48.1943 -8.12375 -4.7493 115.773 13.5623 -38.885 -3.18055e-015 -1.90833e-014 1.27222e-014 -4.75039 74.6045 3.84011 -8.97597e-006 3.36504e-006 -2.99999 8.02885 -4.95099 0.697495 -54.447 -5.44147 3.12634 -107.844 28.8664 45.2904 -2.75543e-005 -6.53431e-007 -6.77749e-006 -19.7841 73.2694 17.3366 3.06901e-006 -5.81624e-006 3.00756 -8.02884 -4.95123 -0.697585 30.8591 67.8797 148.924 180 7.0161e-015 179.248 26.3587 86.2208 -29.2641 -2.99257e-007 -3.05125e-006 1.57862 -41.0768 79.9574 42.6552 8.13553 25.2342 -3.47634 2.16284 71.6211 174.682 4.54188e-006 -4.6773e-006 -0.843922 179.274 -88.5348 -179.561 5.53913e-006 -4.97193e-006 -1.82253 35.7535 78.6983 -37.4065 -8.15939 25.4937 3.50078 
50.2174 65.277 17.1736 -0.395555 33.5935 6.28758 0.625309 1.8106 0.0761181 1.25691 7.62407 0.0621924 1.25938 9.26892 0.0410185 -5.03207 6.48607 -2.4371 -4.14222 -3.76517 -3.96464 48.2269 -8.11395 -4.74286 115.802 13.8038 -38.6651 -6.36111e-015 6.36111e-015 -6.36111e-015 -4.30513 74.5372 3.47325 -8.97597e-006 3.36504e-006 -2.99999 8.02885 -4.95099 0.697495 -54.4975 -5.43494 3.1251 -107.884 28.9445 45.1541 -2.75543e-005 -6.53431e-007 -6.77749e-006 -19.9638 72.9833 17.3656 3.06901e-006 -5.81624e-006 3.00756 -8.02884 -4.95123 -0.697585 31.0881 68.0522 148.678 180 7.01611e-015 179.249 28.0157 86.3713 -30.9472 -2.99257e-007 -3.05125e-006 1.57405 -41.1659 79.9766 42.7462 8.13553 25.2342 -3.47634 2.16592 71.814 174.699 4.54188e-006 -4.6773e-006 -0.842107 -179.434 -88.7295 -178.237 5.53913e-006 -4.97193e-006 -1.81786 35.8171 78.7091 -37.455 -8.15933 25.4928 3.50032 
50.2158 65.4354 17.1968 -0.394143 33.6086 6.27836 0.624227 1.80298 0.0764137 1.25489 7.60885 0.0610361 1.25735 9.25369 0.0398979 -5.03383 6.45151 -2.4307 -4.1568 -3.75694 -3.95885 48.2598 -8.10413 -4.73642 115.831 14.0463 -38.4432 -0 -6.36111e-015 -0 -3.8695 74.4718 3.11462 -8.97597e-006 3.36504e-006 -2.99999 8.02885 -4.95099 0.697495 -54.5468 -5.42845 3.12382 -107.926 29.0232 45.0176 -2.75543e-005 -6.53431e-007 -6.77749e-006 -20.1372 72.693 17.3874 3.06901e-006 -5.81624e-006 3.00756 -8.02884 -4.95123 -0.697585 31.3228 68.2259 148.426 180 7.01611e-015 179.25 29.833 86.5199 -32.7906 -2.99257e-007 -3.05125e-006 1.56942 -41.2521 79.9951 42.8342 8.13553 25.2342 -3.47634 2.16812 72.0087 174.716 4.54188e-006 -4.6773e-006 -0.840288 -177.657 -88.9251 -176.43 5.53913e-006 -4.97193e-006 -1.81314 35.8787 78.7191 -37.5009 -8.15927 25.4919 3.49984 
50.2212 65.5793 17.2506 -0.392781 33.6226 6.26877 0.623168 1.79539 0.0767165 1.25288 7.59366 0.0599697 1.25534 9.2385 0.0388669 -5.03554 6.41628 -2.42427 -4.17054 -3.74741 -3.95283 48.2926 -8.09445 -4.73007 115.861 14.289 -38.2217 -3.18055e-015 -9.54166e-015 -0 -3.43376 74.4042 2.75694 -8.97597e-006 3.36504e-006 -2.99999 8.02885 -4.95099 0.697495 -54.5949 -5.42209 3.12255 -107.97 29.1026 44.8812 -2.75543e-005 -6.53431e-007 -6.77749e-006 -20.3037 72.3982 17.4015 3.06901e-006 -5.81624e-006 3.00756 -8.02884 -4.95123 -0.697585 31.5634 68.401 148.169 180 7.01611e-015 179.251 31.829 86.6661 -34.8129 -2.99257e-007 -3.05125e-006 1.56474 -41.3348 80.0127 42.9186 8.13553 25.2342 -3.47634 2.16934 72.2051 174.734 4.54188e-006 -4.6773e-006 -0.838466 -175.07 -89.1206 -173.811 5.53913e-006 -4.97193e-006 -1.80837 35.938 78.7283 -37.5442 -8.15921 25.4911 3.49937 
50.2318 65.7166 17.3056 -0.391321 33.6352 6.25871 0.62212 1.78789 0.0770206 1.25085 7.57866 0.0590493 1.2533 9.22351 0.0379825 -5.03753 6.37995 -2.4178 -4.18288 -3.73625 -3.94652 48.3247 -8.08503 -4.72391 115.89 14.531 -38.0029 -1.27222e-014 -1.90833e-014 9.54166e-015 -2.98867 74.3306 2.39343 -8.97597e-006 3.36504e-006 -2.99999 8.02885 -4.95099 0.697495 -54.6418 -5.41594 3.12136 -108.016 29.1831 44.7452 -2.75543e-005 -6.53431e-007 -6.77749e-006 -20.4627 72.0987 17.4071 3.06901e-006 -5.81624e-006 3.00756 -8.02884 -4.95123 -0.697585 31.8103 68.5776 147.906 180 7.01611e-015 179.252 34.0247 86.8093 -37.0347 -2.99257e-007 -3.05125e-006 1.56001 -41.414 80.0295 42.9994 8.13553 25.2342 -3.47634 2.16942 72.4035 174.754 4.54188e-006 -4.6773e-006 -0.836644 -170.979 -89.3147 -169.688 5.53913e-006 -4.97193e-006 -1.80357 35.9948 78.7365 -37.5844 -8.15918 25.4906 3.49891 
50.2346 65.8682 17.3472 -0.389619 33.6461 6.24811 0.621076 1.78056 0.0773201 1.24876 7.56402 0.0583315 1.25121 9.20887 0.0373015 -5.04014 6.3421 -2.4113 -4.19327 -3.72315 -3.9399 48.3557 -8.07602 -4.71803 115.92 14.7717 -37.7893 -6.36111e-015 -6.36111e-015 -3.18055e-015 -2.5255 74.247 2.01776 -8.97597e-006 3.36504e-006 -2.99999 8.02885 -4.95099 0.697495 -54.6877 -5.4101 3.1203 -108.066 29.2651 44.6097 -2.75543e-005 -6.53431e-007 -6.77749e-006 -20.6135 71.7941 17.4039 3.06901e-006 -5.81624e-006 3.00756 -8.02884 -4.95123 -0.697585 32.0638 68.7561 147.635 180 7.01611e-015 179.254 36.4433 86.9489 -39.4794 -2.99257e-007 -3.05125e-006 1.55523 -41.4893 80.0454 43.0761 8.13553 25.2342 -3.47634 2.1681 72.604 174.775 4.54188e-006 -4.6773e-006 -0.834823 -163.666 -89.5036 -162.344 5.53913e-006 -4.97193e-006 -1.79874 36.0488 78.7437 -37.6214 -8.15916 25.4904 3.49849 
